<?xml version="1.0" standalone="no"?>
<!DOCTYPE svg PUBLIC "-//W3C//DTD SVG 20010904//EN"
 "http://www.w3.org/TR/2001/REC-SVG-20010904/DTD/svg10.dtd">
<svg version="1.0" xmlns="http://www.w3.org/2000/svg"
 width="700.000000pt" height="700.000000pt" viewBox="0 0 700.000000 700.000000"
 preserveAspectRatio="xMidYMid meet">
<metadata>
Created by potrace 1.11, written by Peter Selinger 2001-2013
</metadata>
<g transform="translate(0.000000,700.000000) scale(0.100000,-0.100000)"
fill="#000000" stroke="none">
<path d="M3367 6614 c-1 -1 -63 -5 -137 -9 -74 -3 -153 -8 -175 -10 -68 -7
-128 -14 -165 -19 -19 -3 -52 -8 -72 -11 -83 -11 -209 -36 -308 -60 -58 -14
-114 -27 -125 -30 -32 -7 -238 -75 -260 -85 -11 -5 -65 -27 -120 -50 -323
-134 -615 -331 -856 -578 -108 -111 -130 -136 -189 -212 -19 -25 -37 -47 -41
-50 -4 -3 -43 -61 -88 -130 -82 -126 -206 -365 -256 -495 -54 -140 -130 -396
-150 -504 -2 -14 -7 -37 -10 -51 -2 -14 -6 -36 -9 -50 -2 -14 -9 -52 -14 -85
-17 -96 -25 -159 -39 -335 -15 -183 -8 -707 11 -830 2 -14 7 -50 11 -80 19
-160 31 -228 76 -413 54 -223 106 -373 190 -553 10 -22 19 -43 19 -46 0 -24
222 -387 262 -429 7 -8 33 -41 58 -74 67 -89 295 -316 405 -403 380 -299 883
-506 1426 -586 98 -15 129 -19 249 -31 227 -23 732 -23 870 0 14 2 58 6 99 10
40 3 76 7 80 9 3 2 34 7 68 10 35 4 68 8 75 11 7 2 31 7 53 10 22 3 68 12 102
20 35 8 76 17 93 20 16 3 41 10 55 15 14 5 39 12 55 15 85 15 332 107 494 184
758 360 1268 1014 1460 1876 14 61 27 124 29 140 54 339 62 435 62 780 0 257
-9 425 -30 560 -2 17 -7 53 -10 80 -9 76 -53 289 -81 395 -131 491 -361 899
-693 1231 -153 153 -241 225 -404 333 -191 127 -423 239 -657 319 -166 57
-452 125 -596 142 -27 3 -58 8 -69 10 -11 2 -47 6 -80 10 -33 3 -73 8 -90 10
-72 11 -568 27 -578 19z m308 -809 c88 -3 174 -7 190 -10 17 -2 55 -7 85 -11
30 -4 64 -8 75 -9 18 -3 107 -19 164 -30 230 -45 514 -156 716 -282 227 -141
387 -294 570 -548 114 -157 262 -511 299 -715 2 -14 9 -45 15 -70 62 -271 74
-775 26 -1097 -21 -145 -24 -157 -56 -287 -147 -588 -502 -1044 -1010 -1297
-215 -108 -486 -190 -734 -224 -22 -3 -49 -8 -60 -10 -93 -20 -650 -28 -805
-12 -225 24 -422 65 -615 128 -107 36 -282 112 -346 151 -25 15 -49 28 -53 28
-10 0 -166 108 -236 165 -228 183 -438 464 -549 735 -12 30 -26 64 -31 75 -17
38 -60 180 -85 280 -30 126 -31 131 -60 330 -19 126 -25 529 -11 695 6 76 24
209 41 310 14 81 75 302 110 395 40 109 120 273 166 345 16 25 32 52 36 60 11
24 91 129 157 205 307 354 741 580 1276 664 175 27 205 30 380 37 85 4 157 8
158 9 2 2 9 2 15 0 7 -2 84 -6 172 -10z"/>
<path d="M3250 5398 c-19 -3 -68 -9 -109 -13 -41 -3 -77 -8 -80 -10 -3 -1 -23
-6 -43 -9 -173 -27 -462 -125 -570 -193 -21 -13 -40 -23 -43 -23 -10 0 -122
-75 -185 -123 -256 -198 -448 -477 -549 -795 -79 -252 -106 -445 -105 -757 2
-641 206 -1129 614 -1470 159 -133 404 -262 584 -309 31 -8 60 -18 65 -21 15
-9 240 -53 311 -60 36 -4 79 -9 95 -12 59 -8 432 -10 505 -1 41 4 98 10 126
13 28 3 62 8 75 10 13 3 38 8 54 11 255 45 548 166 741 305 100 71 267 233
337 326 146 193 260 456 316 728 50 244 61 623 25 865 -50 340 -160 625 -332
860 -74 102 -248 271 -357 348 -194 137 -485 254 -737 297 -18 3 -40 8 -48 10
-8 2 -44 6 -80 10 -36 3 -78 9 -95 12 -43 9 -474 10 -515 1z m435 -802 c39 -4
77 -9 85 -11 8 -3 33 -7 55 -11 110 -16 285 -90 395 -164 62 -43 163 -143 211
-209 99 -138 169 -342 186 -544 53 -623 -193 -1054 -687 -1205 -113 -35 -258
-54 -405 -55 -122 -1 -280 9 -295 18 -3 2 -26 6 -50 10 -25 3 -91 22 -147 41
-340 115 -552 360 -627 727 -56 269 -31 596 61 817 162 392 526 600 1038 594
61 0 142 -4 180 -8z"/>
<path d="M3488 4205 c-1 -1 -37 -5 -78 -9 -95 -7 -121 -12 -195 -38 -227 -78
-386 -278 -420 -528 -9 -68 -7 -229 5 -288 24 -129 76 -240 151 -326 88 -99
238 -182 369 -202 19 -3 46 -7 60 -10 49 -8 206 -5 274 6 156 25 274 84 373
187 71 75 132 184 159 288 26 98 26 332 0 430 -73 279 -296 460 -591 481 -44
3 -85 7 -92 9 -6 2 -13 2 -15 0z"/>
</g>
</svg>
