<?xml version="1.0" encoding="utf-8"?>
<!-- Generator: Adobe Illustrator 19.0.0, SVG Export Plug-In . SVG Version: 6.00 Build 0)  -->
<svg version="1.1" xmlns="http://www.w3.org/2000/svg" xmlns:xlink="http://www.w3.org/1999/xlink" x="0px" y="0px"
	 viewBox="0 0 92 40.7" style="enable-background:new 0 0 92 40.7;" xml:space="preserve">
<style type="text/css">
	.st0{fill:#231F20;}
	.st1{fill:#004D40;}
	.st2{fill:#FF8A80;}
	.st3{fill:#673AB7;}
	.st4{fill:#FF3D00;}
	.st5{fill:#304FFE;}
	.st6{fill:#FF9800;}
</style>
<g id="Layer_1">
	<g id="XMLID_3_">
		<path id="XMLID_6_" class="st0" d="M50.3,28.7c-1,2.9-2.2,5.3-3.4,7c-0.8,1.2-2.1,2.6-4.3,3.7c-3.4,1.7-6.6,1.2-8.1,1
			c-2.4-0.4-4.3-1.3-5.4-1.9l2-6.3c0.4,0.3,1.1,0.8,2,1.1c1,0.4,3.2,1.4,5.4,0.4c0.5-0.2,0.9-0.5,1.3-0.8c1.6-1.4,2-3.8,1.1-5.8
			C37,18.5,33.2,9.8,29.4,1.1h9.3l6.1,16.8L51,1.1h9.4L50.3,28.7z"/>
		<path id="XMLID_13_" class="st0" d="M30.6,28.8l1.8-5.7c-0.4,0.1-1,0.2-1.7,0.2c-1.3,0-2-0.7-2-2.2V11.1c0-3.5-1.1-6.2-3.4-8
			c-2.2-1.8-5.5-2.7-9.8-2.7c-3.7,0-6.6,0.7-8.8,2.2C4.5,4.2,3.2,6.3,2.7,9l7.6,2.2C10.6,9.7,11.2,8.6,12,8c0.9-0.7,2-1,3.4-1
			c1.2,0,2.2,0.4,2.9,1.1c0.7,0.7,1.1,1.7,1.1,3v1l-6.2,1.2c-3.8,0.8-6.6,1.9-8.3,3.3c-1.7,1.5-2.5,3.4-2.5,5.7c0,2.2,0.7,4,2.2,5.1
			c1.5,1.2,3.6,1.8,6.4,1.8c4.9,0,8.2-1.4,9.8-4.3c0.8,2.8,3.2,4.3,7.1,4.3C28.9,29.2,29.8,29.1,30.6,28.8z M19.4,19.2
			c0,1.2-0.5,2.1-1.5,2.8c-1,0.7-2.2,1.1-3.5,1.1c-0.8,0-1.5-0.2-2-0.6c-0.5-0.4-0.7-1-0.7-1.8c0-0.8,0.2-1.4,0.7-1.8
			c0.5-0.4,1.3-0.8,2.5-1.1l4.5-1.1V19.2z"/>
		<g id="XMLID_4_">
			<path id="XMLID_25_" class="st0" d="M85.5,4C82.8,1.3,79,0,74.2,0C69.4,0,65.7,1.3,63,4c-2.7,2.6-4,6.4-4,11.1
				c0,4.7,1.4,8.4,4,11.1c2.7,2.6,6.5,4,11.2,4s8.6-1.3,11.2-4c2.7-2.6,4-6.4,4-11.1C89.5,10.3,88.1,6.6,85.5,4z M74.2,26.2
				c-3.6,0-6.4-1-8.4-2.9c-2-1.9-3-4.7-3-8.2c0-3.5,1-6.3,3-8.2c2-1.9,4.8-2.9,8.4-2.9c3.6,0,6.4,1,8.4,2.9c2,1.9,3,4.7,3,8.2
				c0,3.5-1,6.3-3,8.2C80.6,25.2,77.8,26.2,74.2,26.2z"/>
			<path id="XMLID_28_" class="st0" d="M81.1,8.3c-1.6-1.6-4-2.4-6.9-2.4S69,6.7,67.3,8.3c-1.6,1.6-2.5,3.9-2.5,6.8s0.8,5.2,2.5,6.8
				c1.6,1.6,4,2.4,6.9,2.4c2.9,0,5.2-0.8,6.9-2.4c1.6-1.6,2.5-3.9,2.5-6.8S82.7,9.9,81.1,8.3z M78.2,19c-0.9,0.9-2.3,1.4-4,1.4
				c-1.7,0-3.1-0.5-4-1.4c-0.9-0.9-1.4-2.3-1.4-4c0-1.7,0.5-3,1.4-4c0.9-0.9,2.3-1.4,4-1.4c1.7,0,3.1,0.5,4,1.4
				c0.9,0.9,1.4,2.3,1.4,4C79.7,16.8,79.2,18.1,78.2,19z"/>
			<path id="XMLID_29_" class="st0" d="M74.2,11.7c-1.1,0-1.9,0.3-2.5,0.9c-0.6,0.6-0.9,1.4-0.9,2.5s0.3,1.9,0.9,2.5
				c0.6,0.6,1.5,0.9,2.5,0.9c1.1,0,1.9-0.3,2.5-0.9c0.6-0.6,0.9-1.4,0.9-2.5s-0.3-1.9-0.9-2.5C76.1,12,75.3,11.7,74.2,11.7z"/>
		</g>
	</g>
</g>
<g id="Layer_2">
	<rect id="XMLID_55_" x="151.7" y="-75.5" class="st1" width="192" height="192"/>
	<g id="XMLID_1_">
		<path id="XMLID_23_" class="st2" d="M252,28.7c-1,2.9-2.2,5.3-3.4,7c-0.8,1.2-2.1,2.6-4.3,3.7c-3.4,1.7-6.6,1.2-8.1,1
			c-2.4-0.4-4.3-1.3-5.4-1.9l2-6.3c0.4,0.3,1.1,0.8,2,1.1c1,0.4,3.2,1.4,5.4,0.4c0.5-0.2,0.9-0.5,1.3-0.8c1.6-1.4,2-3.8,1.1-5.8
			c-3.8-8.7-7.6-17.4-11.4-26.2h9.3l6.1,16.8l6.3-16.8h9.4L252,28.7z"/>
		<path id="XMLID_20_" class="st2" d="M232.2,28.8l1.8-5.7c-0.4,0.1-1,0.2-1.7,0.2c-1.3,0-2-0.7-2-2.2V11.1c0-3.5-1.1-6.2-3.4-8
			c-2.2-1.8-5.5-2.7-9.8-2.7c-3.7,0-6.6,0.7-8.8,2.2c-2.2,1.5-3.5,3.6-4,6.3l7.6,2.2c0.3-1.5,0.8-2.6,1.7-3.3c0.9-0.7,2-1,3.4-1
			c1.2,0,2.2,0.4,2.9,1.1c0.7,0.7,1.1,1.7,1.1,3v1l-6.2,1.2c-3.8,0.8-6.6,1.9-8.3,3.3c-1.7,1.5-2.5,3.4-2.5,5.7c0,2.2,0.7,4,2.2,5.1
			c1.5,1.2,3.6,1.8,6.4,1.8c4.9,0,8.2-1.4,9.8-4.3c0.8,2.8,3.2,4.3,7.1,4.3C230.6,29.2,231.4,29.1,232.2,28.8z M221.1,19.2
			c0,1.2-0.5,2.1-1.5,2.8c-1,0.7-2.2,1.1-3.5,1.1c-0.8,0-1.5-0.2-2-0.6c-0.5-0.4-0.7-1-0.7-1.8c0-0.8,0.2-1.4,0.7-1.8
			c0.5-0.4,1.3-0.8,2.5-1.1l4.5-1.1V19.2z"/>
		<g id="XMLID_8_">
			<path id="XMLID_17_" class="st2" d="M287.1,4c-2.7-2.6-6.5-4-11.2-4c-4.8,0-8.6,1.3-11.2,4c-2.7,2.6-4,6.4-4,11.1
				c0,4.7,1.4,8.4,4,11.1c2.7,2.6,6.5,4,11.2,4s8.6-1.3,11.2-4c2.7-2.6,4-6.4,4-11.1C291.2,10.3,289.8,6.6,287.1,4z M275.9,26.2
				c-3.6,0-6.4-1-8.4-2.9c-2-1.9-3-4.7-3-8.2c0-3.5,1-6.3,3-8.2c2-1.9,4.8-2.9,8.4-2.9c3.6,0,6.4,1,8.4,2.9c2,1.9,3,4.7,3,8.2
				c0,3.5-1,6.3-3,8.2C282.3,25.2,279.5,26.2,275.9,26.2z"/>
			<path id="XMLID_14_" class="st2" d="M282.8,8.3c-1.6-1.6-4-2.4-6.9-2.4s-5.2,0.8-6.9,2.4c-1.6,1.6-2.5,3.9-2.5,6.8
				s0.8,5.2,2.5,6.8c1.6,1.6,4,2.4,6.9,2.4c2.9,0,5.2-0.8,6.9-2.4c1.6-1.6,2.5-3.9,2.5-6.8S284.4,9.9,282.8,8.3z M279.9,19
				c-0.9,0.9-2.3,1.4-4,1.4c-1.7,0-3.1-0.5-4-1.4c-0.9-0.9-1.4-2.3-1.4-4c0-1.7,0.5-3,1.4-4c0.9-0.9,2.3-1.4,4-1.4
				c1.7,0,3.1,0.5,4,1.4c0.9,0.9,1.4,2.3,1.4,4C281.3,16.8,280.8,18.1,279.9,19z"/>
			<path id="XMLID_10_" class="st2" d="M275.9,11.7c-1.1,0-1.9,0.3-2.5,0.9c-0.6,0.6-0.9,1.4-0.9,2.5s0.3,1.9,0.9,2.5
				c0.6,0.6,1.5,0.9,2.5,0.9c1.1,0,1.9-0.3,2.5-0.9c0.6-0.6,0.9-1.4,0.9-2.5s-0.3-1.9-0.9-2.5C277.8,12,276.9,11.7,275.9,11.7z"/>
		</g>
	</g>
</g>
<g id="Layer_3">
	<rect id="XMLID_97_" x="-50" y="125" class="st3" width="192" height="192"/>
	<g id="XMLID_83_">
		<path id="XMLID_95_" class="st4" d="M50.3,229.2c-1,2.9-2.2,5.3-3.4,7c-0.8,1.2-2.1,2.6-4.3,3.7c-3.4,1.7-6.6,1.2-8.1,1
			c-2.4-0.4-4.3-1.3-5.4-1.9l2-6.3c0.4,0.3,1.1,0.8,2,1.1c1,0.4,3.2,1.4,5.4,0.4c0.5-0.2,0.9-0.5,1.3-0.8c1.6-1.4,2-3.8,1.1-5.8
			c-3.8-8.7-7.6-17.4-11.4-26.2h9.3l6.1,16.8l6.3-16.8h9.4L50.3,229.2z"/>
		<path id="XMLID_92_" class="st4" d="M30.6,229.3l1.8-5.7c-0.4,0.1-1,0.2-1.7,0.2c-1.3,0-2-0.7-2-2.2v-10.1c0-3.5-1.1-6.2-3.4-8
			c-2.2-1.8-5.5-2.7-9.8-2.7c-3.7,0-6.6,0.7-8.8,2.2c-2.2,1.5-3.5,3.6-4,6.3l7.6,2.2c0.3-1.5,0.8-2.6,1.7-3.3c0.9-0.7,2-1,3.4-1
			c1.2,0,2.2,0.4,2.9,1.1c0.7,0.7,1.1,1.7,1.1,3v1l-6.2,1.2c-3.8,0.8-6.6,1.9-8.3,3.3c-1.7,1.5-2.5,3.4-2.5,5.7c0,2.2,0.7,4,2.2,5.1
			c1.5,1.2,3.6,1.8,6.4,1.8c4.9,0,8.2-1.4,9.8-4.3c0.8,2.8,3.2,4.3,7.1,4.3C28.9,229.7,29.8,229.6,30.6,229.3z M19.4,219.7
			c0,1.2-0.5,2.1-1.5,2.8c-1,0.7-2.2,1.1-3.5,1.1c-0.8,0-1.5-0.2-2-0.6c-0.5-0.4-0.7-1-0.7-1.8c0-0.8,0.2-1.4,0.7-1.8
			c0.5-0.4,1.3-0.8,2.5-1.1l4.5-1.1V219.7z"/>
		<g id="XMLID_84_">
			<path id="XMLID_89_" class="st4" d="M85.5,204.5c-2.7-2.6-6.5-4-11.2-4c-4.8,0-8.6,1.3-11.2,4c-2.7,2.6-4,6.4-4,11.1
				c0,4.7,1.4,8.4,4,11.1c2.7,2.6,6.5,4,11.2,4s8.6-1.3,11.2-4c2.7-2.6,4-6.4,4-11.1C89.5,210.8,88.1,207.1,85.5,204.5z M74.2,226.7
				c-3.6,0-6.4-1-8.4-2.9c-2-1.9-3-4.7-3-8.2c0-3.5,1-6.3,3-8.2c2-1.9,4.8-2.9,8.4-2.9c3.6,0,6.4,1,8.4,2.9c2,1.9,3,4.7,3,8.2
				c0,3.5-1,6.3-3,8.2C80.6,225.7,77.8,226.7,74.2,226.7z"/>
			<path id="XMLID_86_" class="st4" d="M81.1,208.8c-1.6-1.6-4-2.4-6.9-2.4s-5.2,0.8-6.9,2.4c-1.6,1.6-2.5,3.9-2.5,6.8
				c0,2.9,0.8,5.2,2.5,6.8c1.6,1.6,4,2.4,6.9,2.4c2.9,0,5.2-0.8,6.9-2.4c1.6-1.6,2.5-3.9,2.5-6.8C83.6,212.7,82.7,210.4,81.1,208.8z
				 M78.2,219.5c-0.9,0.9-2.3,1.4-4,1.4c-1.7,0-3.1-0.5-4-1.4c-0.9-0.9-1.4-2.3-1.4-4c0-1.7,0.5-3,1.4-4c0.9-0.9,2.3-1.4,4-1.4
				c1.7,0,3.1,0.5,4,1.4c0.9,0.9,1.4,2.3,1.4,4C79.7,217.3,79.2,218.6,78.2,219.5z"/>
			<path id="XMLID_85_" class="st4" d="M74.2,212.2c-1.1,0-1.9,0.3-2.5,0.9c-0.6,0.6-0.9,1.4-0.9,2.5s0.3,1.9,0.9,2.5
				c0.6,0.6,1.5,0.9,2.5,0.9c1.1,0,1.9-0.3,2.5-0.9c0.6-0.6,0.9-1.4,0.9-2.5s-0.3-1.9-0.9-2.5C76.1,212.5,75.3,212.2,74.2,212.2z"/>
		</g>
	</g>
</g>
<g id="Layer_4">
	<rect id="XMLID_151_" x="151.7" y="125" class="st5" width="192" height="192"/>
	<g id="XMLID_137_">
		<path id="XMLID_149_" class="st6" d="M252,229.2c-1,2.9-2.2,5.3-3.4,7c-0.8,1.2-2.1,2.6-4.3,3.7c-3.4,1.7-6.6,1.2-8.1,1
			c-2.4-0.4-4.3-1.3-5.4-1.9l2-6.3c0.4,0.3,1.1,0.8,2,1.1c1,0.4,3.2,1.4,5.4,0.4c0.5-0.2,0.9-0.5,1.3-0.8c1.6-1.4,2-3.8,1.1-5.8
			c-3.8-8.7-7.6-17.4-11.4-26.2h9.3l6.1,16.8l6.3-16.8h9.4L252,229.2z"/>
		<path id="XMLID_146_" class="st6" d="M232.2,229.3l1.8-5.7c-0.4,0.1-1,0.2-1.7,0.2c-1.3,0-2-0.7-2-2.2v-10.1c0-3.5-1.1-6.2-3.4-8
			c-2.2-1.8-5.5-2.7-9.8-2.7c-3.7,0-6.6,0.7-8.8,2.2c-2.2,1.5-3.5,3.6-4,6.3l7.6,2.2c0.3-1.5,0.8-2.6,1.7-3.3c0.9-0.7,2-1,3.4-1
			c1.2,0,2.2,0.4,2.9,1.1c0.7,0.7,1.1,1.7,1.1,3v1l-6.2,1.2c-3.8,0.8-6.6,1.9-8.3,3.3c-1.7,1.5-2.5,3.4-2.5,5.7c0,2.2,0.7,4,2.2,5.1
			c1.5,1.2,3.6,1.8,6.4,1.8c4.9,0,8.2-1.4,9.8-4.3c0.8,2.8,3.2,4.3,7.1,4.3C230.6,229.7,231.4,229.6,232.2,229.3z M221.1,219.7
			c0,1.2-0.5,2.1-1.5,2.8c-1,0.7-2.2,1.1-3.5,1.1c-0.8,0-1.5-0.2-2-0.6c-0.5-0.4-0.7-1-0.7-1.8c0-0.8,0.2-1.4,0.7-1.8
			c0.5-0.4,1.3-0.8,2.5-1.1l4.5-1.1V219.7z"/>
		<g id="XMLID_138_">
			<path id="XMLID_143_" class="st6" d="M287.1,204.5c-2.7-2.6-6.5-4-11.2-4c-4.8,0-8.6,1.3-11.2,4c-2.7,2.6-4,6.4-4,11.1
				c0,4.7,1.4,8.4,4,11.1c2.7,2.6,6.5,4,11.2,4s8.6-1.3,11.2-4c2.7-2.6,4-6.4,4-11.1C291.2,210.8,289.8,207.1,287.1,204.5z
				 M275.9,226.7c-3.6,0-6.4-1-8.4-2.9c-2-1.9-3-4.7-3-8.2c0-3.5,1-6.3,3-8.2c2-1.9,4.8-2.9,8.4-2.9c3.6,0,6.4,1,8.4,2.9
				c2,1.9,3,4.7,3,8.2c0,3.5-1,6.3-3,8.2C282.3,225.7,279.5,226.7,275.9,226.7z"/>
			<path id="XMLID_140_" class="st6" d="M282.8,208.8c-1.6-1.6-4-2.4-6.9-2.4c-2.9,0-5.2,0.8-6.9,2.4c-1.6,1.6-2.5,3.9-2.5,6.8
				c0,2.9,0.8,5.2,2.5,6.8c1.6,1.6,4,2.4,6.9,2.4c2.9,0,5.2-0.8,6.9-2.4c1.6-1.6,2.5-3.9,2.5-6.8
				C285.2,212.7,284.4,210.4,282.8,208.8z M279.9,219.5c-0.9,0.9-2.3,1.4-4,1.4c-1.7,0-3.1-0.5-4-1.4c-0.9-0.9-1.4-2.3-1.4-4
				c0-1.7,0.5-3,1.4-4c0.9-0.9,2.3-1.4,4-1.4c1.7,0,3.1,0.5,4,1.4c0.9,0.9,1.4,2.3,1.4,4C281.3,217.3,280.8,218.6,279.9,219.5z"/>
			<path id="XMLID_139_" class="st6" d="M275.9,212.2c-1.1,0-1.9,0.3-2.5,0.9c-0.6,0.6-0.9,1.4-0.9,2.5s0.3,1.9,0.9,2.5
				c0.6,0.6,1.5,0.9,2.5,0.9c1.1,0,1.9-0.3,2.5-0.9c0.6-0.6,0.9-1.4,0.9-2.5s-0.3-1.9-0.9-2.5C277.8,212.5,276.9,212.2,275.9,212.2z
				"/>
		</g>
	</g>
</g>
</svg>
