<?xml version="1.0" encoding="utf-8"?>
<!-- Generator: Adobe Illustrator 19.0.0, SVG Export Plug-In . SVG Version: 6.00 Build 0)  -->
<svg version="1.1" xmlns="http://www.w3.org/2000/svg" xmlns:xlink="http://www.w3.org/1999/xlink" x="0px" y="0px"
	 viewBox="0 0 92 40.7" style="enable-background:new 0 0 92 40.7;" xml:space="preserve">
<style type="text/css">
    .st0{fill:#22292F;}
</style>
<g id="Layer_1">
	<g id="XMLID_3_">
		<path id="XMLID_6_" class="st0" d="M50.3,28.7c-1,2.9-2.2,5.3-3.4,7c-0.8,1.2-2.1,2.6-4.3,3.7c-3.4,1.7-6.6,1.2-8.1,1
			c-2.4-0.4-4.3-1.3-5.4-1.9l2-6.3c0.4,0.3,1.1,0.8,2,1.1c1,0.4,3.2,1.4,5.4,0.4c0.5-0.2,0.9-0.5,1.3-0.8c1.6-1.4,2-3.8,1.1-5.8
			C37,18.5,33.2,9.8,29.4,1.1h9.3l6.1,16.8L51,1.1h9.4L50.3,28.7z"/>
		<path id="XMLID_13_" class="st0" d="M30.6,28.8l1.8-5.7c-0.4,0.1-1,0.2-1.7,0.2c-1.3,0-2-0.7-2-2.2V11.1c0-3.5-1.1-6.2-3.4-8
			c-2.2-1.8-5.5-2.7-9.8-2.7c-3.7,0-6.6,0.7-8.8,2.2C4.5,4.2,3.2,6.3,2.7,9l7.6,2.2C10.6,9.7,11.2,8.6,12,8c0.9-0.7,2-1,3.4-1
			c1.2,0,2.2,0.4,2.9,1.1c0.7,0.7,1.1,1.7,1.1,3v1l-6.2,1.2c-3.8,0.8-6.6,1.9-8.3,3.3c-1.7,1.5-2.5,3.4-2.5,5.7c0,2.2,0.7,4,2.2,5.1
			c1.5,1.2,3.6,1.8,6.4,1.8c4.9,0,8.2-1.4,9.8-4.3c0.8,2.8,3.2,4.3,7.1,4.3C28.9,29.2,29.8,29.1,30.6,28.8z M19.4,19.2
			c0,1.2-0.5,2.1-1.5,2.8c-1,0.7-2.2,1.1-3.5,1.1c-0.8,0-1.5-0.2-2-0.6c-0.5-0.4-0.7-1-0.7-1.8c0-0.8,0.2-1.4,0.7-1.8
			c0.5-0.4,1.3-0.8,2.5-1.1l4.5-1.1V19.2z"/>
		<g id="XMLID_4_">
			<path id="XMLID_25_" class="st0" d="M85.5,4C82.8,1.3,79,0,74.2,0C69.4,0,65.7,1.3,63,4c-2.7,2.6-4,6.4-4,11.1
				c0,4.7,1.4,8.4,4,11.1c2.7,2.6,6.5,4,11.2,4s8.6-1.3,11.2-4c2.7-2.6,4-6.4,4-11.1C89.5,10.3,88.1,6.6,85.5,4z M74.2,26.2
				c-3.6,0-6.4-1-8.4-2.9c-2-1.9-3-4.7-3-8.2c0-3.5,1-6.3,3-8.2c2-1.9,4.8-2.9,8.4-2.9c3.6,0,6.4,1,8.4,2.9c2,1.9,3,4.7,3,8.2
				c0,3.5-1,6.3-3,8.2C80.6,25.2,77.8,26.2,74.2,26.2z"/>
			<path id="XMLID_28_" class="st0" d="M81.1,8.3c-1.6-1.6-4-2.4-6.9-2.4S69,6.7,67.3,8.3c-1.6,1.6-2.5,3.9-2.5,6.8s0.8,5.2,2.5,6.8
				c1.6,1.6,4,2.4,6.9,2.4c2.9,0,5.2-0.8,6.9-2.4c1.6-1.6,2.5-3.9,2.5-6.8S82.7,9.9,81.1,8.3z M78.2,19c-0.9,0.9-2.3,1.4-4,1.4
				c-1.7,0-3.1-0.5-4-1.4c-0.9-0.9-1.4-2.3-1.4-4c0-1.7,0.5-3,1.4-4c0.9-0.9,2.3-1.4,4-1.4c1.7,0,3.1,0.5,4,1.4
				c0.9,0.9,1.4,2.3,1.4,4C79.7,16.8,79.2,18.1,78.2,19z"/>
			<path id="XMLID_29_" class="st0" d="M74.2,11.7c-1.1,0-1.9,0.3-2.5,0.9c-0.6,0.6-0.9,1.4-0.9,2.5s0.3,1.9,0.9,2.5
				c0.6,0.6,1.5,0.9,2.5,0.9c1.1,0,1.9-0.3,2.5-0.9c0.6-0.6,0.9-1.4,0.9-2.5s-0.3-1.9-0.9-2.5C76.1,12,75.3,11.7,74.2,11.7z"/>
		</g>
	</g>
</g>
</svg>
